HIERARCHY
ROOT Hips
{
  OFFSET -32.5998 29.0326 120.673
  CHANNELS 6 Xposition Yposition Zposition Zrotation Xrotation Yrotation
  JOINT LeftUpLeg
  {
    OFFSET 8.64259 1.95398 -2.38835
    CHANNELS 3 Zrotation Xrotation Yrotation
    JOINT LeftLeg
    {
      OFFSET 43.7702 0 0
      CHANNELS 3 Zrotation Xrotation Yrotation
      JOINT LeftFoot
      {
        OFFSET 40.6238 0 0
        CHANNELS 3 Zrotation Xrotation Yrotation
        JOINT LeftToeBase
        {
          OFFSET 12.7242 0 0
          CHANNELS 3 Zrotation Xrotation Yrotation
          End Site
          {
            OFFSET 0 0 0
          }
        }
      }
    }
  }
  JOINT RightUpLeg
  {
    OFFSET -8.2249 1.95398 -2.59336
    CHANNELS 3 Zrotation Xrotation Yrotation
    JOINT RightLeg
    {
      OFFSET 43.5653 0 0
      CHANNELS 3 Zrotation Xrotation Yrotation
      JOINT RightFoot
      {
        OFFSET 40.6238 0 0
        CHANNELS 3 Zrotation Xrotation Yrotation
        JOINT RightToeBase
        {
          OFFSET 12.7242 0 0
          CHANNELS 3 Zrotation Xrotation Yrotation
          End Site
          {
            OFFSET 0 0 0
          }
        }
      }
    }
  }
  JOINT Spine
  {
    OFFSET 0.165834 0.87714 6.61349
    CHANNELS 3 Zrotation Xrotation Yrotation
    JOINT Spine1
    {
      OFFSET 7.38963 1.71661e-005 0
      CHANNELS 3 Zrotation Xrotation Yrotation
      JOINT Spine2
      {
        OFFSET 11.9445 1.14441e-005 0
        CHANNELS 3 Zrotation Xrotation Yrotation
        JOINT Spine3
        {
          OFFSET 14.7254 4.19617e-005 0
          CHANNELS 3 Zrotation Xrotation Yrotation
          JOINT Spine4
          {
            OFFSET 10.9679 0 0
            CHANNELS 3 Zrotation Xrotation Yrotation
            JOINT RightShoulder
            {
              OFFSET 2.46616 -1.6653 3.69651
              CHANNELS 3 Zrotation Xrotation Yrotation
              JOINT RightArm
              {
                OFFSET 13.0012 0 0
                CHANNELS 3 Zrotation Xrotation Yrotation
                JOINT RightForeArm
                {
                  OFFSET 28.7848 1.62311e-005 0
                  CHANNELS 3 Zrotation Xrotation Yrotation
                  JOINT RightHand
                  {
                    OFFSET 26.5688 1.62095e-005 0
                    CHANNELS 3 Zrotation Xrotation Yrotation
                    End Site
                    {
                      OFFSET 0 0 0
                    }
                  }
                }
              }
            }
            JOINT LeftShoulder
            {
              OFFSET 2.38034 -1.29275 -3.7523
              CHANNELS 3 Zrotation Xrotation Yrotation
              JOINT LeftArm
              {
                OFFSET 16.3182 6.07031e-005 0
                CHANNELS 3 Zrotation Xrotation Yrotation
                JOINT LeftForeArm
                {
                  OFFSET 27.0901 0 0
                  CHANNELS 3 Zrotation Xrotation Yrotation
                  JOINT LeftHand
                  {
                    OFFSET 24.5451 1.51738e-005 0
                    CHANNELS 3 Zrotation Xrotation Yrotation
                    End Site
                    {
                      OFFSET 0 0 0
                    }
                  }
                }
              }
            }
            JOINT Neck
            {
              OFFSET 5.0226 -0.0266342 0
              CHANNELS 3 Zrotation Xrotation Yrotation
              JOINT Head
              {
                OFFSET 6.69364 2.86102e-005 0
                CHANNELS 3 Zrotation Xrotation Yrotation
                End Site
                {
                  OFFSET 0 0 0
                }
              }
            }
          }
        }
      }
    }
  }
}
MOTION
Frames:	6
Frame Time:	0.0416667
-80.9153 91.9587 -13.3075 86.8653 -15.3522 80.8368 -175.279 34.1542 77.1098 -47.1604 24.2053 -3.76065 72.8086 7.95305 5.0987 15.357 -2.31748 -6.12959 168.536 -11.3599 96.6225 -60.0925 -7.68194 5.16072 66.7031 -3.10782 -1.65369 16.8691 1.90278 9.85734 3.54554 8.61309 -88.2565 9.55243 7.85478 2.8573 -2.09703 7.97287 2.50697 -24.7528 6.63266 5.09254 -4.74015 6.63266 5.09256 92.6548 -9.56914 -110.638 1.07976 -15.1659 -3.70392 -48.032 15.9666 -94.0968 -8.92753 -0.489683 1.28621 -85.84 -44.1356 84.0692 -19.2196 33.3264 28.4234 40.1795 -8.90611 -73.0998 0.523882 -0.0582921 -3.12808 25.1224 -30.2249 -21.2292 -5.79465 -21.9973 -4.26055 
-75.8233 91.0291 -8.01615 86.9468 -16.9409 80.1196 -176.377 31.2958 77.8329 -53.4777 19.9384 -1.58596 82.5266 13.9278 2.81105 13.0045 -7.93405 1.82651 164.527 -2.9735 93.6855 -77.8648 -1.3115 2.6704 69.2028 -4.8783 -3.51752 16.8582 1.45943 11.1261 3.10834 8.65232 -88.1233 9.46844 7.04226 3.19005 -2.18652 7.17574 2.87583 -24.8011 5.75848 5.16223 -4.78848 5.75845 5.16222 91.1535 -14.61 -111.515 6.65646 -18.2568 4.51948 -50.0025 15.8366 -92.4524 -8.57553 -0.524735 2.05042 -87.054 -45.8958 82.4373 -9.0568 33.5528 17.1335 38.7125 -11.3532 -76.6817 0.668855 -0.0609213 -3.25528 24.0556 -27.9483 -21.3993 -4.67502 -19.8855 -5.50116 
-70.9785 90.2973 -2.90611 87.8814 -18.075 77.6559 -176.885 25.3118 77.7733 -53.1115 18.1251 -0.965735 86.412 16.6706 1.66408 21.1702 -4.17029 1.9859 163.371 6.81325 91.7041 -93.4182 -0.240252 -0.971663 73.2555 -7.76274 -5.3748 14.4814 2.8687 9.66861 2.48947 8.95498 -87.8508 8.85169 5.92226 3.85701 -2.8107 6.08612 3.59221 -25.3689 4.49085 5.45797 -5.35622 4.49085 5.45798 90.423 -17.7765 -111.483 15.2455 -20.6554 13.4589 -50.8973 15.8671 -91.2837 -7.91198 -0.48565 1.76925 -87.3637 -46.6008 82.0804 2.23212 29.3662 -0.0606512 37.1731 -13.1503 -80.4306 3.92366 0.0385875 -2.0531 26.5246 -25.8984 -19.3328 -5.20808 -17.9758 -8.15108 
-66.0381 89.4251 2.27355 88.0756 -19.0501 76.4282 -176.735 19.1245 79.3587 -51.77 16.7764 -0.718666 91.701 20.0039 -0.720347 24.8095 -3.34481 3.71539 166.718 17.4892 89.0643 -106.087 -3.79415 -3.29244 77.906 -11.4088 -6.67937 10.8203 4.19172 9.80362 1.8356 9.08122 -87.7123 8.60772 4.67546 4.22586 -3.06102 4.85675 4.01605 -25.5774 3.19135 5.43362 -5.56475 3.19135 5.43361 90.855 -18.413 -110.1 27.2279 -24.1704 22.1263 -47.8371 16.4424 -90.7087 -10.8892 -0.749803 2.82919 -86.9306 -43.6207 82.2094 6.81674 19.5759 -14.7046 34.693 -13.4868 -84.9437 5.41307 0.183528 -0.31614 27.854 -23.4406 -18.4257 -5.06701 -15.5916 -9.14301 
-61.2524 89.0528 7.91431 87.5193 -21.7533 78.2322 -174.255 12.198 85.0218 -48.0863 16.4043 -0.752774 96.8168 22.0151 -4.94696 26.5119 -3.41633 5.64805 172.317 27.7252 90.9704 -112.659 -5.17815 -4.09856 79.9328 -13.3184 -8.01914 12.5396 2.75455 11.7841 1.37892 8.97289 -87.9816 8.85434 3.64887 3.74986 -2.8164 3.81026 3.58573 -25.3285 2.35455 4.67171 -5.31584 2.35458 4.67171 92.4088 -17.0596 -107.012 43.4291 -30.991 31.9118 -50.4672 19.3119 -88.0975 -6.8454 -0.312725 0.133903 -86.6978 -40.244 81.9575 7.71924 7.57884 -23.6945 31.9952 -13.1059 -91.1248 5.16431 0.0158693 -2.73402 28.1411 -19.855 -16.5831 -5.43406 -12.6553 -8.44119 
-56.2451 89.0434 13.5477 85.4541 -24.0265 79.4415 -171.726 6.44715 90.0704 -42.2385 18.5229 -0.872894 95.8287 22.6293 -3.72887 31.277 -1.50859 6.52531 177.616 39.4124 91.3367 -114.301 -2.30266 -4.38476 81.863 -14.3052 -8.20112 13.6497 1.9216 12.9034 0.760518 8.5733 -88.2007 9.6806 2.32902 3.38656 -1.99239 2.47574 3.28088 -24.498 1.20445 3.92917 -4.48531 1.20444 3.92916 93.47 -16.3907 -104.669 60.264 -35.6752 43.8393 -55.209 21.8349 -84.7096 -5.18489 -0.184307 -1.15826 -86.3393 -36.1483 81.7425 9.35768 -3.61666 -29.7528 32.0043 -13.5907 -97.5822 7.61885 0.196454 -1.08774 26.9581 -15.7189 -16.3499 -6.40899 -8.83814 -6.98316 
